<?xml version="1.0" standalone="no"?>
<!DOCTYPE svg PUBLIC "-//W3C//DTD SVG 20010904//EN"
 "http://www.w3.org/TR/2001/REC-SVG-20010904/DTD/svg10.dtd">
<svg version="1.0" xmlns="http://www.w3.org/2000/svg"
 width="146.000000pt" height="146.000000pt" viewBox="0 0 146.000000 146.000000"
 preserveAspectRatio="xMidYMid meet">
<metadata>
Created by potrace 1.11, written by Peter Selinger 2001-2013
</metadata>
<g transform="translate(0.000000,146.000000) scale(0.100000,-0.100000)"
fill="#000000" stroke="none">
<path d="M720 1371 c-22 -6 -25 -13 -28 -56 -7 -141 -75 -626 -97 -695 -4 -13
-23 -19 -83 -24 -42 -4 -104 -12 -137 -19 l-60 -12 -3 -45 -3 -45 120 0 c65 0
122 -3 126 -6 9 -9 -23 -114 -51 -171 -46 -92 -129 -158 -197 -158 -37 0 -34
-11 17 -58 76 -70 170 -79 258 -23 70 45 104 108 137 257 16 71 33 128 37 128
5 -1 44 -7 87 -14 l77 -13 0 -127 0 -128 43 10 c23 5 77 8 120 5 42 -3 77 -4
77 -2 0 2 -13 106 -29 232 -42 322 -80 718 -83 854 l-3 115 -150 1 c-82 1
-161 -2 -175 -6z m159 -412 c11 -107 23 -232 26 -279 l7 -85 -69 5 c-53 4 -68
8 -66 20 1 8 13 87 27 175 14 88 31 206 37 262 7 56 14 101 16 99 2 -2 12 -90
22 -197z"/>
</g>
</svg>
